# xmcd CD database file
# Copyright (C) 1996 Ti Kan
#
# Track frame offsets:
# 	150
# 	14385
# 	26405
# 	43250
# 	56793
# 	70818
# 	84250
# 	98970
# 	115398
# 	133010
# 	145428
#
# Disc length: 2152 seconds
#
# Revision: 1
# Processed by: cddbd v1.4b41PL1 Copyright (c) Steve Scherf et al.
# Submitted via: DiscPlay 3.4.1
#
DISCID=9b08660b
DTITLE=Aynee Osborn - Fall into place
DYEAR=1900
DGENRE=
TTITLE0=fall into place
TTITLE1=when I dream
TTITLE2=sleep on the bed
TTITLE3=learn how to love
TTITLE4=easy come, easy go
TTITLE5=cryin' shame
TTITLE6=keep on moving
TTITLE7=right beside you
TTITLE8=sweet moon
TTITLE9=roads mending-live
TTITLE10=why must you leave?-live
EXTD=
EXTT0=
EXTT1=
EXTT2=
EXTT3=
EXTT4=
EXTT5=
EXTT6=
EXTT7=
EXTT8=
EXTT9=
EXTT10=
PLAYORDER=
